<svg xmlns="http://www.w3.org/2000/svg" width="337" height="337" style="shape-rendering:geometricPrecision;text-rendering:geometricPrecision;image-rendering:optimizeQuality;fill-rule:evenodd;clip-rule:evenodd"><path style="opacity:.712" fill="#fdfdfd" d="M95.5 57.5q.165.925 1 1.5 4.5 1 9 0 .834-.575 1-1.5 16.117 4.945 21.5 21a90.7 90.7 0 0 1 3.5 15q-4 8.5 0 17a5.73 5.73 0 0 1-1 3q-2.092-2.331-2 1 .252 2.506 2 4a5.73 5.73 0 0 1-1 3q-1.725-2.025-2 .5.208 1.951 2 2.5a258 258 0 0 1-6 24q-4.03-.841 0 2-1.403 10.75-10.5 6l-.5-5a465 465 0 0 0 6.5-40q2.253-18.231-5-35-6.804-11.016-19.5-7.5a65.8 65.8 0 0 0-21 12Q46.023 107.976 29 142.5a822 822 0 0 0-7.5 21q-1.725-2.025-2 .5.504 1.545 2 1.5a5.73 5.73 0 0 1-1 3q-2.092-2.331-2 1 1.896 6.032 0 12 .686 1.197 2 1 4.297 6.8 12 9 .686 3.085 3 0 1.936-.356 3 1 0 2 2 2 7.899.467 15-2 3.18-.262 6 1-.165.925-1 1.5l5 .5q4.057.276 7-2 1.487-.257 2 1 1.5 4 3 0 1.936-.356 3 1 1 4 2 0 17.298 3.258 26.5 18a1253 1253 0 0 0 57.5-48.5 73.6 73.6 0 0 1 13-19 19.5 19.5 0 0 1 7-3.5q1.218 2.24 4 2 3.29-1.58 4.5 1a2.43 2.43 0 0 0 .5-2q8.092 3.17 7 12-4.332-.765-7 2-1.897 1.521-2 4.5.103 2.979 2 4.5.546 8.837 8.5 13a76 76 0 0 0 7.5-3.5l13.5-13.5q6.75-10.75 17.5-17.5 5.892-1.987 12-1 3.834 1.582 5 5.5-3.822 2.693 0 5-.857 4.116-5 2.5a62 62 0 0 1-5-5.5q-9.258 3.501-14.5 12-6.14 8.759-8 19a179 179 0 0 0 20.5-24.5q7.01-1.752 8 5.5-4 1 0 2 1.258.513 1 2-2.3 3.201-2 7.5l.5 5.5q1.076-.816 1.5-2a320 320 0 0 0 17.5-13q4.491-18.24 22.5-23 5.445.1 7 5-4 3 0 6-5.777 13.399-20 17-2.264-2.038-2 1.5.276 2.064 2 2.5a25.7 25.7 0 0 0 6 6q.436 1.724 2.5 2 3.538.264 1.5-2a97 97 0 0 0 12-5.5 247 247 0 0 1 16-12.5q1.5 4 3 0 3.687 2.99.5 7-13.809 16.026-34.5 20-11.895-1.423-17-12a269 269 0 0 1-15.5 12 32 32 0 0 1-1.5 6q-.925-.166-1.5-1l-.5 7q-.278 5.461 2 10a5.73 5.73 0 0 1-1 3q-1.295-1.445-2 0 .663 1.858 2 3a44.3 44.3 0 0 1-2 10q-1.725-2.025-2 .5.208 1.951 2 2.5-3.389 24.025-20 41.5-11.203 8.477-22.5.5-5.034-9.332-3-20 9.827-35.326 36-61 3.556-8.159 2-17-7.404 13.167-21.5 18-3.14.022-5.5-2a55 55 0 0 1-2-7q-20.916 13.028-30-10a169 169 0 0 1-9 15q-13.332 7.014-15-8a435 435 0 0 1-46.5 39.5q-2.462 1.693-3 4.5-3.727 1.86 0 3 1.356 1.063 1 3-4 5.5 0 11l-1 2q-1.725-2.025-2 .5.208 1.951 2 2.5-7.945 27.145-31 43.5-15.578 9.594-31.5 1.5-3.812-13.787 4-26 19.809-26.31 46.5-45.5-6.99-11.488-20-15a3141 3141 0 0 0-58-6q-10.511-3.516-12.5-14.5-2.195-25.228 9-48Q38.35 94.178 74.5 66a60.8 60.8 0 0 1 17-7.5q.514 2.588 3 1.5-.835-.575-1-1.5zm98 96h-6q3-4 6 0m-8 2q.11 2.29-2 3-.11-2.29 2-3m-2 3a121 121 0 0 1-7 13q1.569-7.644 7-13m38 110h-1q-1.757-1.267-4-2a20.7 20.7 0 0 1-1-5v-7q8.759-28.998 29.5-51 .166 24.67-8 48-4.4 11.645-15.5 17m-156 18h-5q-3.488-4.071-.5-9 10.198-18.59 26.5-32.5a181 181 0 0 1 17.5-14.5q1.367 30.52-23.5 48.5-6.817 5.409-15 7.5"/></svg>