<?xml version="1.0" standalone="no"?>
<!DOCTYPE svg PUBLIC "-//W3C//DTD SVG 20010904//EN"
 "http://www.w3.org/TR/2001/REC-SVG-20010904/DTD/svg10.dtd">
<svg version="1.0" xmlns="http://www.w3.org/2000/svg"
 width="1050.000000pt" height="600.000000pt" viewBox="0 0 1050.000000 600.000000"
 preserveAspectRatio="xMidYMid meet">

<g transform="translate(0.000000,600.000000) scale(0.100000,-0.100000)"
fill="#000000" stroke="none">
<path d="M6840 4241 c-128 -39 -293 -236 -439 -521 -94 -185 -164 -357 -221
-540 -66 -216 -74 -228 -54 -80 97 712 106 921 45 1040 -60 117 -168 43 -286
-198 -136 -275 -199 -588 -149 -735 19 -56 45 -77 97 -77 34 0 38 3 35 23 -2
14 -11 23 -24 25 -45 6 -59 37 -62 136 -5 112 16 230 63 372 63 191 201 432
246 434 16 0 29 -99 29 -213 0 -91 -16 -251 -60 -603 -68 -554 -112 -975 -108
-1036 2 -35 7 -44 24 -46 11 -2 26 3 31 10 6 7 21 78 32 158 57 380 262 1019
428 1330 144 272 343 487 413 450 66 -35 52 -239 -30 -446 -67 -167 -108 -237
-315 -529 -78 -110 -145 -208 -148 -219 -9 -22 9 -46 34 -46 10 0 46 23 81 51
72 58 155 103 220 119 93 24 167 -25 205 -135 22 -63 26 -312 5 -337 -7 -9
-83 -55 -170 -103 -473 -264 -659 -419 -736 -615 -25 -62 -23 -156 3 -208 54
-106 193 -141 345 -87 86 30 162 80 250 164 173 165 300 394 360 647 44 184
39 174 112 224 70 47 138 105 267 226 43 41 80 74 82 74 3 0 5 -44 5 -97 0
-225 46 -335 129 -308 36 11 109 137 185 320 17 39 17 39 29 15 7 -13 25 -27
40 -31 38 -10 74 23 125 116 22 38 44 71 49 72 6 2 13 -13 16 -33 7 -43 47
-99 87 -119 59 -31 122 -16 203 47 l37 30 0 -36 c0 -44 29 -77 60 -69 27 7 56
46 115 153 25 47 56 96 68 108 l22 24 6 -89 c7 -111 31 -185 70 -218 56 -47
118 -29 191 55 l45 51 17 -45 c57 -148 230 -151 388 -7 l55 51 7 -39 c5 -33
11 -41 38 -50 46 -16 70 5 131 114 l50 88 12 -39 c38 -129 124 -175 230 -124
71 34 165 138 165 183 0 33 -38 17 -81 -35 -49 -58 -121 -108 -157 -108 -62 0
-101 65 -102 167 0 59 -15 93 -40 93 -13 0 -51 -54 -111 -160 -44 -78 -55 -91
-57 -70 -10 68 70 218 141 264 26 18 28 18 73 -9 55 -33 74 -23 49 25 -21 40
-73 63 -123 54 -51 -10 -130 -91 -171 -176 -62 -132 -185 -246 -288 -269 -65
-15 -95 -4 -119 43 -38 73 -5 236 61 298 l23 22 7 -21 c3 -12 15 -21 25 -21
42 0 32 102 -11 115 -55 18 -151 -61 -184 -151 -34 -94 -52 -129 -93 -183 -53
-70 -93 -97 -122 -81 -34 18 -49 70 -60 201 -6 67 -15 128 -21 136 -31 36 -74
-1 -169 -147 l-62 -95 6 55 c3 31 17 89 31 129 31 93 33 141 5 141 -27 0 -64
-60 -91 -149 -23 -79 -60 -130 -133 -183 -98 -71 -176 -1 -176 160 0 56 -20
83 -48 66 -9 -6 -44 -59 -77 -118 -77 -134 -90 -147 -81 -86 9 59 57 157 104
210 44 50 73 54 121 19 25 -18 34 -20 43 -11 19 19 -9 62 -54 86 -32 18 -40
18 -78 7 -62 -19 -121 -83 -170 -187 -169 -362 -209 -441 -242 -478 l-36 -41
-14 30 c-17 40 -18 379 0 495 25 164 63 356 89 448 25 85 26 94 11 109 -20 19
-41 12 -62 -19 -33 -50 -96 -338 -111 -508 l-7 -75 -126 -125 c-70 -69 -165
-154 -212 -189 l-85 -64 -7 99 c-14 196 -44 285 -115 343 -69 57 -145 65 -249
26 -48 -18 -65 -21 -61 -11 3 8 48 75 101 151 112 161 202 332 253 482 31 91
37 125 41 219 4 104 3 116 -21 168 -21 44 -34 60 -61 71 -39 16 -40 17 -76 6z
m59 -1828 c-91 -328 -284 -602 -500 -712 -106 -53 -175 -63 -242 -33 -125 56
-104 225 48 390 92 99 239 203 493 348 246 141 239 140 201 7z"/>
<path d="M1385 4140 c-123 -26 -229 -92 -360 -224 -144 -145 -253 -305 -355
-518 -121 -254 -149 -461 -77 -570 44 -66 165 -98 372 -98 270 -1 412 -50 489
-171 l17 -27 -83 -68 c-284 -233 -433 -416 -439 -539 -3 -74 0 -85 34 -106 26
-16 45 -19 102 -17 87 4 156 35 238 108 171 153 267 370 236 535 -13 69 -18
62 150 198 69 56 181 151 250 213 l126 113 5 -49 c6 -55 13 -65 51 -73 37 -9
64 14 109 96 21 40 45 81 53 91 13 18 15 17 21 -20 25 -133 150 -184 262 -106
l44 32 0 -43 c0 -24 5 -48 12 -55 16 -16 53 -15 87 3 29 14 161 152 161 167 0
4 5 8 10 8 6 0 10 -36 10 -89 0 -101 15 -72 -133 -253 -78 -95 -163 -232 -209
-340 -25 -58 -32 -91 -36 -160 -7 -134 26 -188 115 -188 57 0 88 17 146 79
107 114 175 346 195 660 l7 115 90 73 c50 40 92 73 96 73 3 0 15 -20 27 -45
51 -105 177 -111 318 -15 110 76 187 170 139 170 -8 0 -44 -26 -80 -59 -114
-100 -210 -142 -271 -116 -38 16 -54 41 -54 88 0 31 4 35 39 45 51 16 123 80
146 132 17 38 18 45 4 69 -45 81 -193 -7 -245 -147 -10 -26 -23 -50 -28 -54
-6 -3 -49 -37 -96 -73 l-85 -68 -11 94 c-14 114 -20 129 -49 129 -18 0 -37
-19 -78 -77 -30 -43 -81 -103 -113 -133 -52 -48 -59 -52 -62 -34 -4 31 33 124
77 190 72 111 163 175 194 138 40 -50 49 -56 58 -43 14 22 10 45 -12 73 -47
60 -163 20 -251 -87 -181 -220 -250 -268 -317 -221 -33 23 -51 74 -51 143 0
43 -5 65 -19 82 -19 24 -19 24 -40 5 -12 -11 -49 -68 -83 -128 -55 -98 -87
-137 -74 -90 2 9 8 33 11 52 15 72 91 192 137 216 24 13 32 13 57 -1 17 -8 33
-19 36 -25 12 -20 35 -10 35 15 0 49 -66 90 -126 79 -48 -9 -124 -81 -163
-153 -24 -46 -59 -84 -154 -168 -243 -216 -457 -393 -475 -393 -6 0 -13 9 -17
19 -9 29 -87 96 -144 125 -81 41 -162 56 -376 66 -268 14 -323 31 -354 113
-44 114 50 403 217 666 42 66 218 279 281 340 99 94 226 161 306 161 86 0 149
-59 186 -173 37 -117 29 -328 -22 -542 -33 -139 -22 -217 25 -182 17 13 65
194 91 342 19 113 20 293 0 368 -29 112 -88 203 -155 237 -45 23 -121 32 -175
20z m2015 -925 c0 -20 -51 -76 -89 -98 -49 -29 -40 3 17 63 49 51 72 62 72 35z
m-490 -507 c-1 -58 -37 -321 -54 -385 -44 -169 -130 -283 -214 -283 -42 0 -72
39 -72 96 0 57 43 193 87 274 60 111 222 330 244 330 5 0 9 -15 9 -32z m-1412
-347 c-3 -93 -6 -104 -47 -187 -36 -72 -60 -105 -130 -175 -100 -100 -170
-139 -250 -139 -63 0 -77 19 -61 80 16 59 105 185 190 270 104 104 272 250
289 250 11 0 13 -20 9 -99z"/>
<path d="M4830 3841 c-52 -16 -130 -62 -189 -111 -71 -59 -118 -134 -127 -204
-6 -38 -16 -59 -50 -97 -86 -97 -171 -243 -209 -358 -25 -77 -17 -183 18 -244
31 -52 108 -97 167 -97 90 0 223 70 341 178 31 29 60 52 65 52 4 0 37 -26 73
-59 135 -119 252 -196 224 -147 -10 18 -145 158 -208 215 l-48 44 76 71 c107
100 152 155 140 167 -7 7 -48 -24 -127 -96 l-116 -107 -48 42 c-115 100 -222
251 -237 336 -7 38 31 79 185 206 119 98 180 159 180 181 0 34 -50 46 -110 28z
m-1 -79 c-134 -116 -244 -202 -247 -193 -10 29 78 127 157 176 43 27 113 55
120 49 2 -1 -12 -16 -30 -32z m-228 -529 c18 -26 70 -90 116 -140 47 -51 81
-97 78 -103 -17 -28 -166 -136 -224 -163 -88 -41 -176 -44 -216 -7 -77 72 -80
179 -10 327 36 77 76 140 134 211 l35 43 27 -60 c15 -33 42 -81 60 -108z"/>
</g>
</svg>
