<?xml version="1.0" encoding="UTF-8"?>
<svg version="1.1" xmlns="http://www.w3.org/2000/svg" width="512" height="512">
<path d="M0 0 C3.265625 1.58203125 3.265625 1.58203125 6.25 3.8125 C6.79301758 4.21412354 7.33603516 4.61574707 7.89550781 5.02954102 C9.62086409 6.32504645 11.3127058 7.6553771 13 9 C13.84498047 9.66563965 13.84498047 9.66563965 14.70703125 10.34472656 C38.04775378 28.89657671 52.54371249 53.35781866 60 82 C63.22218435 82 65.06704981 79.8787922 67.625 78 C83.7286191 66.58469041 106.25218481 55.84416398 126.4375 56.4609375 C130.35456024 57.28495322 131.92469286 59.04778381 134.25390625 62.21484375 C153.47828919 92.8792398 162.51847996 127.97925808 154.50488281 163.90771484 C146.48430854 197.14578134 127.25040167 226.26004719 98.11328125 244.58203125 C83.65799023 253.28330849 67.82200724 259.90814418 51 262 C50.90823486 262.64670654 50.81646973 263.29341309 50.72192383 263.9597168 C49.74683958 268.06615038 48.11471684 271.77475718 46.44921875 275.64453125 C46.08300415 276.50644073 45.71678955 277.36835022 45.33947754 278.25637817 C44.54363526 280.12831143 43.74568999 281.99935168 42.94589233 283.86959839 C40.78769179 288.91680957 38.64483205 293.97053443 36.5 299.0234375 C36.05214645 300.07738205 35.60429291 301.1313266 35.14286804 302.21720886 C29.66727333 315.11515067 24.29287429 328.05514867 18.91732788 340.99502563 C18.10146214 342.95883027 17.28477935 344.9222957 16.46720886 346.88539124 C15.69197621 348.75339417 14.92201651 350.62359522 14.15766907 352.49607849 C12.60262161 356.28577678 11.04995425 360.01394877 9.109375 363.62402344 C3.37972119 374.77662606 4.3310481 386.11406299 4.625 398.375 C4.65515694 400.57548408 4.68252255 402.77600826 4.70703125 404.9765625 C4.77252443 410.31859695 4.87241108 415.65910641 5 421 C7.85846007 418.17097124 10.71094984 415.33599221 13.5625 412.5 C14.36236328 411.70851563 15.16222656 410.91703125 15.98632812 410.1015625 C19.61282772 406.48986494 23.17244733 402.87220394 26.5078125 398.98828125 C30.53011252 394.30640582 34.91460883 390.0137059 39.3125 385.6875 C40.91507597 384.11042246 42.51544087 382.53109404 44.11328125 380.94921875 C44.81235596 380.26174561 45.51143066 379.57427246 46.23168945 378.8659668 C49.21575066 375.77881519 49.21575066 375.77881519 49.9765625 371.71484375 C49.86054688 370.79832031 49.74453125 369.88179688 49.625 368.9375 C46.98973987 342.26352555 51.33473822 315.82661562 68.33447266 294.31103516 C71.37709047 290.68608779 74.6325555 287.3232652 78 284 C79.10988281 282.89205078 79.10988281 282.89205078 80.2421875 281.76171875 C99.61436004 263.48943146 124.52729037 256.95670756 150.44140625 257.6796875 C166.37105886 258.42659987 166.37105886 258.42659987 171.21875 263.171875 C179.65190321 276.5613551 177.24170732 299.34780655 174.03125 314.13671875 C169.11848067 332.54099475 160.54424587 347.61416636 147 361 C145.92492187 362.09054687 145.92492187 362.09054687 144.828125 363.203125 C130.9556335 376.44978981 110.21600525 385.95324201 91 387 C88.73989512 386.93432115 86.48057032 386.83796339 84.22265625 386.71875 C70.78953747 385.33633362 70.78953747 385.33633362 58.5546875 389.6015625 C55.7487742 392.18054656 53.47348641 395.03128688 51.30810547 398.15820312 C45.56714984 406.24140008 38.0624951 413.00958224 31.02734375 419.93359375 C27.30757671 423.61753638 23.68706277 427.29858779 20.3046875 431.296875 C18.25911052 433.69587627 16.31696473 435.62744122 13.7265625 437.421875 C8.83597447 441.09289573 5.54006796 443.97423465 4.42871094 450.20068359 C4.0403718 455.22135392 3.96792019 460.17873397 4.09619141 465.21191406 C4.12632324 466.39881836 4.15645508 467.58572266 4.1875 468.80859375 C4.24292969 469.87907959 4.29835938 470.94956543 4.35546875 472.05249023 C3.90595876 475.77978019 2.60727834 477.35890365 0 480 C-2.21875 480.6640625 -2.21875 480.6640625 -4.5 480.625 C-5.2528125 480.63789063 -6.005625 480.65078125 -6.78125 480.6640625 C-10.11748466 479.66554156 -11.12641035 477.88493824 -13 475 C-13.38720703 471.74536133 -13.38720703 471.74536133 -13.2578125 468.08203125 C-13.24305474 466.73113765 -13.23009215 465.38022347 -13.21875 464.02929688 C-13.17965946 461.92598139 -13.1255723 459.82624965 -13.03808594 457.72436523 C-12.66336391 448.86032207 -12.66336391 448.86032207 -16.16992188 440.91455078 C-18.6712857 438.42548426 -21.25698154 436.21493192 -24 434 C-25.11520654 432.77835132 -26.20676761 431.53365778 -27.25 430.25 C-31.19359991 425.6303544 -35.54272384 421.42856062 -39.859375 417.16235352 C-43.67976623 413.37026529 -47.33165653 409.50632239 -50.765625 405.35546875 C-51.97763565 403.86110218 -51.97763565 403.86110218 -54 403 C-55.34722582 402.96305267 -56.69641998 402.98649819 -58.04296875 403.04296875 C-77.17716233 403.61326785 -94.87518938 399.98131792 -109.4375 386.5625 C-111.3289213 384.74040423 -113.16419665 382.87964343 -115 381 C-116.01707031 380.01386719 -116.01707031 380.01386719 -117.0546875 379.0078125 C-129.08300284 366.55182372 -133.64582469 348.32340004 -133.40478516 331.46142578 C-132.81274764 315.79809791 -132.81274764 315.79809791 -127.75 310.76171875 C-118.04140017 304.54214698 -103.2259342 306.58556182 -92.328125 308.71875 C-73.92058958 313.46380357 -59.27055768 324.0636181 -49 340 C-41.76909471 352.3415889 -36.20691754 368.80954657 -39.52978516 383.31225586 C-40.36775262 387.26548587 -40.72067336 389.85769618 -38.50732422 393.3659668 C-36.27927808 395.76980231 -33.95522392 397.95394551 -31.5 400.125 C-29.88319255 401.62521075 -28.26858297 403.1277939 -26.65625 404.6328125 C-25.87121094 405.3537207 -25.08617187 406.07462891 -24.27734375 406.81738281 C-20.9441455 410.01193602 -17.97323964 413.47404274 -15 417 C-14.67 417.33 -14.34 417.66 -14 418 C-13.4855718 407.16922373 -13.09711521 396.3414383 -12.86013222 385.50084496 C-12.74625065 380.463726 -12.59252243 375.43507351 -12.34033203 370.40283203 C-10.1951326 345.11978574 -10.1951326 345.11978574 -20.16338921 323.00312996 C-24.18590365 318.85237679 -28.70464195 315.35922156 -33.39569092 311.99371338 C-36.56040407 309.57098598 -39.01848983 306.87164173 -41.52603149 303.79110718 C-44.11925608 300.63992508 -47.08669927 297.85196809 -50 295 C-53.69970178 291.34293491 -57.36993668 287.70950274 -60.75 283.75 C-61.55630859 282.86054687 -61.55630859 282.86054687 -62.37890625 281.953125 C-64 280 -64 280 -65.65234375 277.296875 C-68.07876042 273.96229853 -70.1516043 271.51875298 -74 270 C-79.7430078 269.25952803 -85.47608133 269.55184631 -91.2487793 269.76049805 C-113.44715936 270.56032155 -132.63820095 263.24508479 -149.3125 248.4375 C-150.88060683 246.96427862 -152.44363532 245.48562083 -154 244 C-154.61359375 243.46117187 -155.2271875 242.92234375 -155.859375 242.3671875 C-170.39893269 229.09483897 -179.01340968 207.11171264 -180.1262207 187.81079102 C-181.00769875 160.96628664 -181.00769875 160.96628664 -175.09765625 152.16796875 C-169.72373626 146.61391737 -159.75859542 146.88152805 -152.39135742 146.75854492 C-127.6230634 146.67004157 -104.73837097 154.39755525 -87 172 C-86.113125 172.845625 -85.22625 173.69125 -84.3125 174.5625 C-83.549375 175.366875 -82.78625 176.17125 -82 177 C-81.48179687 177.52335938 -80.96359375 178.04671875 -80.4296875 178.5859375 C-64.78949187 195.20802882 -58.85391323 218.19801473 -58.8046875 240.47265625 C-59 244 -59 244 -59.7578125 247.43359375 C-60.66927567 252.04853083 -61.36199816 255.82240215 -58.75244141 259.99462891 C-55.21263168 264.43494429 -51.14398796 268.32266833 -46.97851562 272.16943359 C-44.23886019 274.70422338 -41.62630949 277.3480143 -39 280 C-38.12085938 280.86882812 -37.24171875 281.73765625 -36.3359375 282.6328125 C-33.80171156 285.20094112 -31.46616534 287.88409842 -29.1328125 290.6328125 C-26.29001241 293.7880082 -23.28655945 296.76609817 -20.2734375 299.7578125 C-19.66975342 300.35924072 -19.06606934 300.96066895 -18.4440918 301.58032227 C-16.96386593 303.05469165 -15.48208828 304.5275028 -14 306 C-13.69802122 294.69968318 -13.46742588 283.4003343 -13.32644176 272.09679604 C-13.25875257 266.84709231 -13.16705337 261.60015949 -13.01928711 256.35205078 C-12.87741919 251.28135634 -12.80018603 246.21331557 -12.76659584 241.14078903 C-12.74268025 239.21161491 -12.69597031 237.28257704 -12.62550926 235.35454178 C-11.93588075 225.35324311 -11.93588075 225.35324311 -15.2473793 216.2443161 C-18.71619039 212.73876751 -22.76014824 210.45681599 -27 208 C-51.65952916 188.13889166 -66.97677119 157.84517012 -71.375 126.75 C-74.84559864 91.25686748 -65.64901382 57.25889868 -43.1171875 29.41015625 C-35.19079488 19.80771512 -26.62431998 11.62879352 -16.4375 4.4375 C-15.53584106 3.77379395 -15.53584106 3.77379395 -14.6159668 3.09667969 C-9.85752488 -0.1300363 -5.69969835 -1.0401672 0 0 Z M11.55386353 210.7635498 C8.24187736 212.73304067 5.79893645 214.5861218 4 218 C2.05600987 226.16910273 2.84142326 234.95477582 3.0234375 243.28125 C3.04209987 245.78085498 3.05632923 248.28049666 3.0663147 250.78015137 C3.10052084 256.67400627 3.17922337 262.56593522 3.27980959 268.45900297 C3.40289812 275.83170965 3.45633221 283.20465274 3.51171875 290.578125 C3.61881079 303.71969878 3.78743981 316.85973052 4 330 C6.31691448 326.52462828 7.84436506 322.87848449 9.45703125 319.046875 C9.79703156 318.2467247 10.13703186 317.4465744 10.48733521 316.62217712 C12.36748734 312.19193512 14.23058335 307.75461449 16.09008789 303.31567383 C16.85917945 301.48243427 17.62863078 299.64934561 18.3984375 297.81640625 C18.78239182 296.90159988 19.16634613 295.98679352 19.56193542 295.04426575 C21.69506769 289.99185335 23.89618572 284.98259419 26.21412659 280.01223755 C27.51088798 277.22976375 28.77661296 274.43369383 30.04037476 271.6361084 C30.63301181 270.34886611 31.2415585 269.0688166 31.86660767 267.79699707 C35.52954059 260.63932478 35.52954059 260.63932478 35.09228516 252.93579102 C33.57124866 250.11383667 31.89246762 247.58417693 30 245 C25.01550399 236.02177871 21.64571808 227.40415407 19.04101562 217.48852539 C18.81607422 216.6608667 18.59113281 215.83320801 18.359375 214.98046875 C18.16827148 214.23692139 17.97716797 213.49337402 17.78027344 212.72729492 C17.5227832 212.1572876 17.26529297 211.58728027 17 211 C14.09793335 209.70790038 14.09793335 209.70790038 11.55386353 210.7635498 Z " fill="#542A6B" transform="translate(258,16)"/>
<path d="M0 0 C3.55189577 1.34727081 6.11544749 3.56281606 8.91796875 6.05078125 C9.49264893 6.55246826 10.0673291 7.05415527 10.65942383 7.57104492 C12.31929075 9.03145689 13.96408562 10.5071608 15.60546875 11.98828125 C16.35570312 12.6534375 17.1059375 13.31859375 17.87890625 14.00390625 C28.58771227 24.05707109 35.56431418 36.78669072 41.60546875 49.98828125 C42.01539063 50.84679687 42.4253125 51.7053125 42.84765625 52.58984375 C52.30615601 73.92645949 53.14044477 101.03743096 45.60546875 122.98828125 C45.31671875 123.99761719 45.02796875 125.00695312 44.73046875 126.046875 C37.58739479 150.05908344 21.38864017 171.13283364 0.60546875 184.98828125 C-4.27365148 184.86360186 -7.22414387 182.017748 -10.70703125 178.92578125 C-11.28171143 178.42409424 -11.8563916 177.92240723 -12.44848633 177.40551758 C-14.10835325 175.94510561 -15.75314812 174.4694017 -17.39453125 172.98828125 C-18.51988281 171.99054688 -18.51988281 171.99054688 -19.66796875 170.97265625 C-34.0926276 157.43113978 -43.10294098 138.78946182 -48.39453125 119.98828125 C-48.8740625 118.36019531 -48.8740625 118.36019531 -49.36328125 116.69921875 C-53.85617194 98.60285347 -53.33166634 77.67021628 -47.39453125 59.98828125 C-47.18554199 59.36244141 -46.97655273 58.73660156 -46.76123047 58.09179688 C-38.86794894 35.08007276 -24.35897119 15.38041472 -4.68359375 1.03515625 C-2.39453125 -0.01171875 -2.39453125 -0.01171875 0 0 Z " fill="#7BC4B3" transform="translate(254.39453125,34.01171875)"/>
<path d="M0 0 C16.31405767 27.26260305 23.2349813 56.88753228 15.83837891 88.546875 C8.56960389 116.61259396 -8.87352051 142.12752046 -34 157 C-42.2244763 161.73860555 -50.69934794 165.45818013 -59.6875 168.5 C-60.44184326 168.75547607 -61.19618652 169.01095215 -61.97338867 169.27416992 C-69.36936661 171.6487955 -69.36936661 171.6487955 -73 171 C-83.15484578 161.34416384 -89.09435899 141.60539045 -91 128 C-91.13148438 127.24976563 -91.26296875 126.49953125 -91.3984375 125.7265625 C-91.76807625 122.09390582 -91.5737657 119.86597529 -89.52734375 116.77734375 C-88.15693545 115.14538635 -86.7658455 113.53066988 -85.359375 111.9296875 C-71.1518936 94.28794735 -60.89441868 67.58001827 -60.94921875 44.86328125 C-60.96997335 31.60109138 -60.96997335 31.60109138 -58.2109375 27.046875 C-55.62054214 24.6336728 -53.02156981 22.84373495 -50 21 C-48.37384766 19.87271484 -48.37384766 19.87271484 -46.71484375 18.72265625 C-36.40765434 11.64096585 -25.42697831 5.87583147 -13.5 2.0625 C-12.8414502 1.85077148 -12.18290039 1.63904297 -11.50439453 1.42089844 C-7.56932394 0.2402767 -4.09975623 -0.20878388 0 0 Z " fill="#7BC4B3" transform="translate(380,90)"/>
<path d="M0 0 C1.87171875 -0.00386719 1.87171875 -0.00386719 3.78125 -0.0078125 C7.4529207 0.1233186 10.87996907 0.53721147 14.5 1.125 C18.83371362 14.12614085 16.27083236 32.54585032 11.5 45.125 C11.04947266 46.35089844 11.04947266 46.35089844 10.58984375 47.6015625 C9.6703711 49.85446952 8.63605337 51.97326978 7.5 54.125 C7.00757813 55.06859375 6.51515625 56.0121875 6.0078125 56.984375 C-4.65675908 76.34769852 -21.52522666 88.13625153 -42.4921875 94.36328125 C-47.55524648 95.6454845 -52.33212622 96.24957667 -57.5546875 96.22265625 C-59.21757812 96.21782227 -59.21757812 96.21782227 -60.9140625 96.21289062 C-62.05617188 96.20451172 -63.19828125 96.19613281 -64.375 96.1875 C-65.5403125 96.18298828 -66.705625 96.17847656 -67.90625 96.17382812 C-70.77088645 96.16208781 -73.63541633 96.1456657 -76.5 96.125 C-81.46006626 79.02575911 -77.24284148 57.70773219 -69.5 42.125 C-58.3475755 22.47325409 -41.41867034 8.55625276 -19.625 2.3125 C-13.10420154 0.6260866 -6.7292368 -0.01390338 0 0 Z " fill="#7BC4B3" transform="translate(401.5,289.875)"/>
<path d="M0 0 C26.33405904 -0.62289441 26.33405904 -0.62289441 36 3 C36.96292969 3.32871094 37.92585938 3.65742188 38.91796875 3.99609375 C58.06795657 11.15566229 72.00268758 25.53283698 80.64453125 43.8359375 C86.74733003 58.08166377 88.130068 73.73137559 85 89 C68.76130023 93.54007267 50.72711914 89.15952262 36.36010742 81.27539062 C17.64879844 70.43744382 6.39354017 54.31772666 0 34 C-1.43358378 28.05233395 -1.14685135 21.95695892 -1.125 15.875 C-1.12886719 14.79089844 -1.13273437 13.70679688 -1.13671875 12.58984375 C-1.13542969 11.54699219 -1.13414063 10.50414062 -1.1328125 9.4296875 C-1.13168457 8.48335449 -1.13055664 7.53702148 -1.12939453 6.56201172 C-1.01130114 4.22376264 -0.66247566 2.23741781 0 0 Z " fill="#7BC4B3" transform="translate(96,180)"/>
<path d="M0 0 C2.8125 2.0625 2.8125 2.0625 5 4 C3.96687242 7.09938275 2.79508224 8.29370583 0.5078125 10.515625 C-21.42321801 32.10575867 -32.87764982 64.58390963 -33.3125 94.875 C-33.33944946 96.21413452 -33.33944946 96.21413452 -33.36694336 97.58032227 C-33.35909745 103.14935105 -32.42751783 106.90221255 -30 112 C-29.2359041 114.61956597 -28.65635539 117.27487302 -28.0625 119.9375 C-26.86026121 125.04308121 -25.51063385 129.6588996 -22.91796875 134.23828125 C-21.91156214 136.16972542 -21.34838077 138.03257297 -20.75 140.125 C-16.13001696 154.53139872 -5.83436505 166.79270431 5 177 C3.63792042 181.08623873 1.73386836 181.9894555 -2 184 C-6.88447521 183.84296949 -9.82012014 181.03789378 -13.3125 177.9375 C-13.88718018 177.43581299 -14.46186035 176.93412598 -15.05395508 176.41723633 C-16.713822 174.95682436 -18.35861687 173.48112045 -20 172 C-21.12535156 171.00226563 -21.12535156 171.00226563 -22.2734375 169.984375 C-36.69809635 156.44285853 -45.70840973 137.80118057 -51 119 C-51.47953125 117.37191406 -51.47953125 117.37191406 -51.96875 115.7109375 C-56.46164069 97.61457222 -55.93713509 76.68193503 -50 59 C-49.79101074 58.37416016 -49.58202148 57.74832031 -49.36669922 57.10351562 C-41.47341769 34.09179151 -26.96443994 14.39213347 -7.2890625 0.046875 C-4.37805705 -1.28443807 -2.99988508 -1.00650809 0 0 Z " fill="#86D7C0" transform="translate(257,35)"/>
<path d="M0 0 C16.4428506 9.51954509 26.34601693 27.27393393 34 44 C34.40992188 44.85851562 34.81984375 45.71703125 35.2421875 46.6015625 C44.70068726 67.93817824 45.53497602 95.04914971 38 117 C37.566875 118.51400391 37.566875 118.51400391 37.125 120.05859375 C30.91280889 140.94153974 17.89822661 159.37239789 1 173 C-0.13199353 172.0919838 -1.25532363 171.17316174 -2.375 170.25 C-3.31472656 169.48429687 -3.31472656 169.48429687 -4.2734375 168.703125 C-6.08312318 166.91800519 -7.00117455 165.32050356 -8 163 C-7.05640625 161.74509766 -7.05640625 161.74509766 -6.09375 160.46484375 C9.92813945 138.83277581 19.64348342 114.28048333 19.5 87 C19.49572998 85.74832031 19.49145996 84.49664062 19.48706055 83.20703125 C18.99749171 56.05412502 8.90550905 31.01448694 -8 10 C-6.27200079 6.23055056 -4.01169351 3.85724769 -1 1 C-0.67 0.67 -0.34 0.34 0 0 Z " fill="#6DAE9D" transform="translate(262,40)"/>
<path d="M0 0 C14.95990675 18.20048002 15.19084572 45.81198087 14 68 C11.07250413 95.90403383 -4.01633062 121.73850092 -25 140 C-37.13055114 149.69217234 -51.0957399 156.70937967 -66 161 C-66.67595315 159.58774074 -67.34040059 158.16997095 -68 156.75 C-68.37125 155.96109375 -68.7425 155.1721875 -69.125 154.359375 C-70 152 -70 152 -70 148 C-69.11699219 147.52691406 -68.23398437 147.05382812 -67.32421875 146.56640625 C-59.16617601 142.10960246 -51.91126002 137.28031634 -45 131 C-44.48050781 130.52965332 -43.96101563 130.05930664 -43.42578125 129.57470703 C-25.63603868 113.25863969 -15.07895919 93.16130577 -9 70 C-8.6390625 68.80246094 -8.278125 67.60492188 -7.90625 66.37109375 C-2.71602683 47.06435842 -6.28297155 24.93100751 -11 6 C-9.73308493 5.32591692 -8.46129251 4.66099503 -7.1875 4 C-6.47980469 3.62875 -5.77210938 3.2575 -5.04296875 2.875 C-3 2 -3 2 0 2 C0 1.34 0 0.68 0 0 Z " fill="#6DAE9D" transform="translate(384,98)"/>
<path d="M0 0 C16.28158186 -0.82092009 30.35328977 2.34954794 43.3125 12.87890625 C48.33805355 17.5903627 51.75268918 22.96346295 55 29 C55.5775 30.051875 56.155 31.10375 56.75 32.1875 C59.82240426 39.10040958 60.26511075 44.95235252 60.125 52.4375 C60.11597656 53.35982422 60.10695312 54.28214844 60.09765625 55.23242188 C60.0742766 57.48855809 60.04150916 59.74413684 60 62 C49.60343316 65.46552228 37.84104856 62.18796739 28.2421875 57.71484375 C14.91713871 50.2168931 5.85750205 39.60168328 0.90234375 25.1953125 C-1.18724947 17.08985869 -0.38557595 8.28810338 0 0 Z " fill="#7BC4B3" transform="translate(142,340)"/>
<path d="M0 0 C1.87171875 -0.00386719 1.87171875 -0.00386719 3.78125 -0.0078125 C7.4529207 0.1233186 10.87996907 0.53721147 14.5 1.125 C14.5 3.435 14.5 5.745 14.5 8.125 C13.01113281 8.27195312 13.01113281 8.27195312 11.4921875 8.421875 C-11.86384375 10.90920836 -34.09245373 19.5877959 -49.5 38.125 C-62.97622581 55.77450864 -68.30043419 74.28460541 -70.5 96.125 C-72.48 96.125 -74.46 96.125 -76.5 96.125 C-81.46006626 79.02575911 -77.24284148 57.70773219 -69.5 42.125 C-58.3475755 22.47325409 -41.41867034 8.55625276 -19.625 2.3125 C-13.10420154 0.6260866 -6.7292368 -0.01390338 0 0 Z " fill="#85D5C0" transform="translate(401.5,289.875)"/>
<path d="M0 0 C0.33 0 0.66 0 1 0 C1.83464126 28.25260677 1.83464126 28.25260677 -3 41 C-3.45052734 42.22589844 -3.45052734 42.22589844 -3.91015625 43.4765625 C-4.8296289 45.72946952 -5.86394663 47.84826978 -7 50 C-7.49242187 50.94359375 -7.98484375 51.8871875 -8.4921875 52.859375 C-19.15675908 72.22269852 -36.02522666 84.01125153 -56.9921875 90.23828125 C-63.38097841 91.8562218 -69.32191836 92.12664914 -75.875 92.0625 C-76.75414062 92.05798828 -77.63328125 92.05347656 -78.5390625 92.04882812 C-80.69273803 92.03712337 -82.84637817 92.01919069 -85 92 C-85 89.69 -85 87.38 -85 85 C-84.42668945 84.87471924 -83.85337891 84.74943848 -83.26269531 84.62036133 C-57.68667601 78.9650141 -36.40977799 69.30801796 -21 47 C-13.16045083 34.06086988 -7.35521114 19.24178692 -7 4 C-4.69 4 -2.38 4 0 4 C0 2.68 0 1.36 0 0 Z " fill="#6EAE9D" transform="translate(416,294)"/>
<path d="M0 0 C26.33405904 -0.62289441 26.33405904 -0.62289441 36 3 C36.96292969 3.32871094 37.92585938 3.65742188 38.91796875 3.99609375 C58.06795657 11.15566229 72.00268758 25.53283698 80.64453125 43.8359375 C86.74733003 58.08166377 88.130068 73.73137559 85 89 C83.02 89.33 81.04 89.66 79 90 C78.83564453 88.15148437 78.83564453 88.15148437 78.66796875 86.265625 C76.7100982 65.27538202 71.49860173 47.91825648 57 32 C56.484375 31.39285156 55.96875 30.78570312 55.4375 30.16015625 C42.06072377 15.41226046 20.30688503 7.32242058 0.87890625 6.078125 C0.25886719 6.05234375 -0.36117187 6.0265625 -1 6 C-0.67 4.02 -0.34 2.04 0 0 Z " fill="#6DAD9D" transform="translate(96,180)"/>
<path d="M0 0 C4 6.625 4 6.625 4 10 C3.00033203 10.43699219 3.00033203 10.43699219 1.98046875 10.8828125 C-25.39445885 23.05795512 -48.62956923 42.57387067 -61.05859375 70.3671875 C-62 72 -62 72 -65 73 C-64.70946625 71.22898044 -64.4174913 69.45819731 -64.125 67.6875 C-63.94324219 66.57761719 -63.76148438 65.46773438 -63.57421875 64.32421875 C-63.23533894 62.36240436 -62.87274616 60.40401259 -62.45703125 58.45703125 C-61.50883641 53.97271129 -60.95531569 49.76486964 -61.00390625 45.1796875 C-61.07120507 31.77600666 -61.07120507 31.77600666 -58.20703125 27.02734375 C-55.61584739 24.63060436 -53.01267293 22.83830616 -50 21 C-48.91589844 20.24847656 -47.83179688 19.49695313 -46.71484375 18.72265625 C-36.40765434 11.64096585 -25.42697831 5.87583147 -13.5 2.0625 C-12.8414502 1.85077148 -12.18290039 1.63904297 -11.50439453 1.42089844 C-7.56932394 0.2402767 -4.09975623 -0.20878388 0 0 Z " fill="#86D6C0" transform="translate(380,90)"/>
<path d="M0 0 C1.98 0 3.96 0 6 0 C6.99203068 3.89911188 7.95387802 7.78263306 8.7890625 11.71875 C11.73818533 25.05870748 17.0010029 37.55841558 26 48 C26.55816406 48.7115625 27.11632812 49.423125 27.69140625 50.15625 C40.21729339 65.42789528 60.59329606 74.84369956 80 77 C80 79.31 80 81.62 80 84 C58.12878847 84.90190563 40.10673317 79.7286178 23.359375 65.2109375 C11.45993162 54.0601346 1.74020676 38.54196544 0 22 C-0.10844528 18.20697963 -0.09432184 14.41914229 -0.0625 10.625 C-0.05798828 9.60277344 -0.05347656 8.58054688 -0.04882812 7.52734375 C-0.037103 5.01816806 -0.02069176 2.5091151 0 0 Z " fill="#86D6C0" transform="translate(95,186)"/>
<path d="M0 0 C1.29336834 3.88010501 0.40985946 5.56309564 -0.8125 9.4375 C-4.33655304 20.62032534 -5.3643099 31.54869655 -5.3125 43.25 C-5.30903564 44.52327148 -5.30557129 45.79654297 -5.30200195 47.10839844 C-5.15635026 59.72939967 -3.43133994 71.13764386 1 83 C1.5679431 84.68567587 2.13049458 86.3731784 2.6875 88.0625 C2.93886719 88.81660156 3.19023437 89.57070313 3.44921875 90.34765625 C3.63097656 90.89292969 3.81273437 91.43820312 4 92 C0.19838996 93.41455257 -2.93639548 94.48071031 -7 94 C-17.15484578 84.34416384 -23.09435899 64.60539045 -25 51 C-25.13148438 50.24976563 -25.26296875 49.49953125 -25.3984375 48.7265625 C-25.76807625 45.09390582 -25.5737657 42.86597529 -23.52734375 39.77734375 C-22.15693545 38.14538635 -20.7658455 36.53066988 -19.359375 34.9296875 C-12.83164524 26.8240628 -8.12427672 16.8663545 -4.0703125 7.33203125 C-2.89062077 4.76168102 -1.49214134 2.40021593 0 0 Z " fill="#86D6C0" transform="translate(314,167)"/>
<path d="M0 0 C4.32616312 1.02254765 5.93562074 2.13786484 8.4375 5.8125 C8.68181102 11.67596449 5.93196349 16.90776149 3.69140625 22.23828125 C0.47189068 31.41540507 0.09855974 40.39535042 0.046875 50.04101562 C-0.06122016 54.3798353 -0.16617561 57.11936498 -2.3515625 60.94140625 C-4.67042971 62.90383981 -5.57188231 63.4959105 -8.5625 63.4375 C-9.5525 63.45683594 -9.5525 63.45683594 -10.5625 63.4765625 C-13.87438022 62.37691477 -14.83335288 60.82136834 -16.5625 57.8125 C-17.0973295 54.46567259 -17.03490269 51.19372193 -16.9375 47.8125 C-16.92098389 46.87132324 -16.90446777 45.93014648 -16.88745117 44.96044922 C-16.53381121 30.80755925 -14.74949774 13.36701791 -5.16796875 2.0859375 C-3.5625 0.8125 -3.5625 0.8125 0 0 Z " fill="#542C6C" transform="translate(239.5625,82.1875)"/>
<path d="M0 0 C0.99 0 1.98 0 3 0 C3.15855469 0.94359375 3.31710938 1.8871875 3.48046875 2.859375 C6.27558697 18.24024655 11.31487045 30.19125517 23 41 C23.4640625 41.46921875 23.928125 41.9384375 24.40625 42.421875 C33.04519554 50.63734282 44.55092282 53.8638383 56 56 C56.495 57.98 56.495 57.98 57 60 C40.89833886 61.06164799 27.88288407 56.05100514 15.75 45.6875 C6.56441897 37.03379142 0.19289547 25.93428331 -0.30859375 13.09765625 C-0.36071307 8.72262376 -0.22291101 4.3690558 0 0 Z " fill="#85D3BF" transform="translate(142,343)"/>
<path d="M0 0 C16.28158186 -0.82092009 30.35328977 2.34954794 43.3125 12.87890625 C48.33805355 17.5903627 51.75268918 22.96346295 55 29 C55.5775 30.051875 56.155 31.10375 56.75 32.1875 C59.82240426 39.10040958 60.26511075 44.95235252 60.125 52.4375 C60.11597656 53.35982422 60.10695312 54.28214844 60.09765625 55.23242188 C60.0742766 57.48855809 60.04150916 59.74413684 60 62 C59.01 62 58.02 62 57 62 C56.79697266 60.29457031 56.79697266 60.29457031 56.58984375 58.5546875 C54.2811446 41.25920046 47.75350464 27.14056258 34.125 15.6875 C23.87020577 7.9101637 12.7557616 4.02869045 0 3 C0 2.01 0 1.02 0 0 Z " fill="#6DAC9D" transform="translate(142,340)"/>
<path d="M0 0 C3.83546882 2.90228556 5.71041069 6.0668789 7.125 10.625 C7 14 7 14 5.5625 16.9375 C2.47083745 19.42591132 0.77114416 19.68079534 -3.10546875 19.421875 C-6.06089723 18.76375897 -7.24242457 17.4085293 -9 15 C-9.598125 14.236875 -10.19625 13.47375 -10.8125 12.6875 C-12.43325407 9.01947764 -12.06269056 6.82568603 -11 3 C-7.92244297 -0.66939492 -4.56126263 -0.78642459 0 0 Z " fill="#552F6D" transform="translate(244,158)"/>
<path d="M0 0 C1.31223496 3.93670488 0.24296256 6.12488144 -1 10 C-1.99 10 -2.98 10 -4 10 C-3.52449439 8.51965236 -3.04448784 7.04074979 -2.5625 5.5625 C-2.29566406 4.73878906 -2.02882813 3.91507813 -1.75390625 3.06640625 C-1 1 -1 1 0 0 Z " fill="#82CCBB" transform="translate(314,167)"/>
</svg>
